<svg xmlns="http://www.w3.org/2000/svg" xmlns:xlink="http://www.w3.org/1999/xlink" viewBox="0,0,256,256" width="1600px" height="1600px"><g fill="none" fill-rule="nonzero" stroke="none" stroke-width="1" stroke-linecap="butt" stroke-linejoin="miter" stroke-miterlimit="10" stroke-dasharray="" stroke-dashoffset="0" font-family="none" font-weight="none" font-size="none" text-anchor="none" style="mix-blend-mode: normal"><g transform="scale(8,8)"><path d="M11.73,31.42c-0.49206,-0.17872 -0.763,-0.70671 -0.62126,-1.21067c0.14174,-0.50396 0.64817,-0.81331 1.16126,-0.70933c4.05042,1.13082 8.39462,0.38101 11.83162,-2.04214c3.437,-2.42315 5.6027,-6.26295 5.89838,-10.45786h-2c-0.55388,6.33227 -5.94953,11.13412 -12.3033,10.94928c-6.35376,-0.18484 -11.46115,-5.29222 -11.64598,-11.64598c-0.18484,-6.35376 4.61701,-11.74942 10.94928,-12.3033v-2c-6.06225,0.40582 -11.17075,4.67552 -12.64596,10.56953c-1.47521,5.89401 1.01965,12.06675 6.17596,15.28047c0.22579,0.14025 0.38645,0.36463 0.44649,0.62357c0.06004,0.25894 0.01453,0.53112 -0.12649,0.75643c-0.14187,0.22413 -0.36698,0.38272 -0.62579,0.44086c-0.25881,0.05814 -0.53012,0.01107 -0.75421,-0.13086c-6.03292,-3.79823 -8.82515,-11.12965 -6.84738,-17.97882c1.97777,-6.84917 8.24837,-11.5636 15.37738,-11.56118c0.55228,0 1,0.44772 1,1v4c0,0.55228 -0.44772,1 -1,1c-5.52285,0 -10,4.47715 -10,10c0,5.52285 4.47715,10 10,10c5.52285,0 10,-4.47715 10,-10c0,-0.55228 0.44772,-1 1,-1h4c0.55228,0 1,0.44772 1,1c0.00009,4.99777 -2.33514,9.70851 -6.31278,12.73442c-3.97764,3.02591 -9.14072,4.01936 -13.95722,2.68558z" fill="#a3c7dc"></path><path d="M16,24c-4.41828,0 -8,-3.58172 -8,-8c0,-0.55228 0.44772,-1 1,-1h4c0.55228,0 1,0.44772 1,1c0,1.10457 0.89543,2 2,2c1.10457,0 2,-0.89543 2,-2c0,-1.10457 -0.89543,-2 -2,-2c-0.55228,0 -1,-0.44772 -1,-1v-4c0,-0.55228 0.44772,-1 1,-1c4.41828,0 8,3.58172 8,8c0,4.41828 -3.58172,8 -8,8zM10.08,17c0.51138,3.01072 3.20255,5.15702 6.2516,4.98585c3.04904,-0.17118 5.48308,-2.60521 5.65425,-5.65425c0.17118,-3.04904 -1.97512,-5.74022 -4.98585,-6.2516v2.05c1.88994,0.48589 3.15345,2.26461 2.98995,4.20915c-0.16349,1.94454 -1.70626,3.48731 -3.65081,3.65081c-1.94454,0.16349 -3.72326,-1.10001 -4.20915,-2.98995z" fill="#89a3b2"></path></g></g></svg>