<svg xmlns="http://www.w3.org/2000/svg" xmlns:xlink="http://www.w3.org/1999/xlink" viewBox="0,0,256,256" width="1600px" height="1600px"><g fill="#ffffff" fill-rule="nonzero" stroke="none" stroke-width="1" stroke-linecap="butt" stroke-linejoin="miter" stroke-miterlimit="10" stroke-dasharray="" stroke-dashoffset="0" font-family="none" font-weight="none" font-size="none" text-anchor="none" style="mix-blend-mode: normal"><g transform="scale(4,4)"><path d="M54.621,46.621c0.39,0.391 0.39,1.024 0,1.414l-6.586,6.586c-0.39,0.391 -1.024,0.391 -1.414,0l-12.996,-12.996l8,-8l3.802,3.802l-2.291,2.291c-0.391,0.391 -0.391,1.024 0,1.414c0.391,0.391 1.024,0.391 1.414,0l2.291,-2.291l2.982,2.982l-2.291,2.291c-0.391,0.391 -0.391,1.024 0,1.414c0.391,0.391 1.024,0.391 1.414,0l2.291,-2.291zM26.432,18.432l3.943,3.943l-8,8l-12.996,-12.996c-0.391,-0.391 -0.391,-1.024 0,-1.414l6.586,-6.586c0.391,-0.391 1.024,-0.391 1.414,0l3.367,3.367l-2.291,2.291c-0.391,0.391 -0.391,1.024 0,1.414c0.391,0.391 1.024,0.391 1.414,0l2.291,-2.291l2.857,2.857l-2.291,2.291c-0.391,0.391 -0.391,1.024 0,1.414c0.391,0.391 1.024,0.391 1.414,0zM43.5,13.5l2.914,-2.914c0.781,-0.781 2.047,-0.781 2.828,0l4.172,4.172c0.781,0.781 0.781,2.047 0,2.828l-2.914,2.914zM41.625,15.375l7,7l-27.12,27.12l-9.201,4.412c-1.367,0.457 -2.668,-0.844 -2.211,-2.211l4.412,-9.201z"></path></g></g></svg>