<svg xmlns="http://www.w3.org/2000/svg" xmlns:xlink="http://www.w3.org/1999/xlink" viewBox="0,0,256,256" width="1600px" height="1600px"><g fill="#a3c7dc" fill-rule="nonzero" stroke="none" stroke-width="1" stroke-linecap="butt" stroke-linejoin="miter" stroke-miterlimit="10" stroke-dasharray="" stroke-dashoffset="0" font-family="none" font-weight="none" font-size="none" text-anchor="none" style="mix-blend-mode: normal"><g transform="scale(5.12,5.12)"><path d="M39.8,48.6c-0.2,0 -0.4,-0.1 -0.5,-0.2l-14.3,-9.1l-14.3,9.2c-0.3,0.2 -0.8,0.2 -1.1,0c-0.3,-0.2 -0.5,-0.7 -0.4,-1.1l4.4,-16.4l-13.2,-10.8c-0.4,-0.3 -0.5,-0.7 -0.4,-1.1c0.1,-0.4 0.5,-0.7 0.9,-0.7l17,-0.9l6.2,-15.9c0.1,-0.3 0.5,-0.6 0.9,-0.6c0.4,0 0.8,0.3 0.9,0.6l6.2,15.9l17,0.9c0.4,0 0.8,0.3 0.9,0.7c0.1,0.4 0,0.8 -0.3,1.1l-13.3,10.8l4.3,16.4c0.1,0.4 0,0.8 -0.4,1.1c-0.1,0 -0.3,0.1 -0.5,0.1zM25,37.1c0,0 0.4,0.1 0.5,0.2l12.6,8.1l-3.8,-14.5c-0.1,-0.4 0,-0.8 0.3,-1l11.7,-9.6l-15,-0.8c-0.4,0 -0.7,-0.3 -0.9,-0.6l-5.4,-14.1z"></path></g></g></svg>