<svg xmlns="http://www.w3.org/2000/svg" xmlns:xlink="http://www.w3.org/1999/xlink" viewBox="0,0,256,256" width="1600px" height="1600px"><g fill="#ffffff" fill-rule="nonzero" stroke="none" stroke-width="1" stroke-linecap="butt" stroke-linejoin="miter" stroke-miterlimit="10" stroke-dasharray="" stroke-dashoffset="0" font-family="none" font-weight="none" font-size="none" text-anchor="none" style="mix-blend-mode: normal"><g transform="scale(9.84615,9.84615)"><path d="M13,0.15625c-7.08594,0 -12.84375,5.75781 -12.84375,12.84375c0,7.08594 5.75781,12.84375 12.84375,12.84375c7.08594,0 12.84375,-5.75781 12.84375,-12.84375c0,-7.08594 -5.75781,-12.84375 -12.84375,-12.84375zM13,1.78125c2.11719,0 4.09375,0.57813 5.78125,1.59375c0.01172,0.00781 0.01953,0.02344 0.03125,0.03125c0.01953,0.01953 0.04297,0.04297 0.0625,0.0625c0.01953,0.02344 0.02734,0.01563 0.0625,0.03125c0.01172,0.05469 0.03516,0.09375 0.0625,0.125c0.01172,0.01172 0.01563,0.03906 0.03125,0.0625c0.02344,0.03125 0.05469,0.06641 0.40625,0.25c-0.04297,-0.01953 -0.09375,-0.00391 -0.125,0.03125c-0.01562,0.01953 -0.03125,0.03906 -0.03125,0.0625c-0.03906,-0.01953 -0.08594,-0.04297 -0.125,-0.0625c-0.05078,-0.01953 -0.07422,-0.03906 -0.125,-0.0625c-0.00781,-0.00391 -0.02344,0.00391 -0.03125,0l-0.21875,-0.03125c-0.01562,-0.00391 -0.04687,-0.00781 -0.0625,0c-0.00781,0.00391 -0.02344,-0.00391 -0.03125,0l-0.125,-0.03125l-0.125,-0.0625c-0.00781,-0.00391 -0.05469,-0.03125 -0.0625,-0.03125l-0.1875,-0.03125c-0.00781,0 -0.02344,0 -0.03125,0h-0.125c-0.01953,0 -0.04687,0.02344 -0.0625,0.03125c-0.01953,0.01172 -0.02344,0.01172 -0.03125,0.03125l-0.03125,0.0625l-0.09375,0.03125c-0.02344,0.00391 -0.04687,0.01172 -0.0625,0.03125c-0.00781,0.01172 -0.02734,0.04688 -0.03125,0.0625l-0.03125,0.03125c-0.01562,0.01563 -0.02734,0.04297 -0.03125,0.0625l-0.03125,0.0625c-0.01172,0.01172 -0.02734,0.04688 -0.03125,0.0625c-0.00391,0.01172 -0.00391,0.01953 0,0.03125v0.0625l-0.03125,0.375c0,0.00781 -0.00391,0.01953 0,0.03125c-0.00781,0.00391 -0.02344,0.02344 -0.03125,0.03125l-0.1875,0.28125c-0.02734,0.03125 -0.05469,0.05859 -0.03125,0.09375l0.3125,0.46875l0.03125,0.09375c0.00781,0.01563 0.01953,0.01953 0.03125,0.03125c0.07031,0.05859 0.16797,0.07813 0.25,0.09375c0.01172,0 0.01953,-0.00391 0.03125,0v0.15625c-0.00391,0.02734 0.01172,0.07422 0.03125,0.09375l0.0625,0.09375c0.00391,0.01172 0.02344,0.01953 0.03125,0.03125l-0.15625,0.0625c-0.01172,0.00391 -0.01953,-0.00781 -0.03125,0c-0.00391,0.00391 -0.02734,0.02734 -0.03125,0.03125l-0.0625,0.09375c-0.01953,0 -0.04297,0.01563 -0.0625,0.03125l-0.0625,0.0625c-0.00781,0.00781 -0.02734,0.02344 -0.03125,0.03125c-0.00391,0.00391 0.00391,0.02734 0,0.03125l-0.03125,0.0625v-0.09375c0,-0.00391 0,-0.02734 0,-0.03125c-0.00781,-0.04687 -0.00391,-0.04687 -0.5625,-0.5625v-0.125c0,-0.00781 0,-0.05469 0,-0.0625l-0.03125,-0.03125c-0.00391,-0.00781 0.00391,-0.02344 0,-0.03125c-0.02344,-0.03906 -0.03516,-0.03906 -0.21875,-0.125v-0.0625c-0.02734,-0.05078 -0.08984,-0.05859 -0.15625,-0.0625h-0.125c-0.09766,0.00781 -0.10547,0.02344 -0.1875,0.4375c0,0.01563 -0.00781,0.05078 0,0.0625c0.00391,0.00781 -0.00391,0.02344 0,0.03125c-0.00781,0 -0.05469,0.02734 -0.0625,0.03125c-0.02344,0.00391 -0.04297,0.01172 -0.0625,0.03125c-0.00781,0.00391 -0.02344,-0.00391 -0.03125,0c-0.01172,0.00781 -0.00391,0.01953 -0.03125,0.03125c-0.00781,0.00391 -0.02734,-0.00391 -0.03125,0c-0.05859,0 -0.10547,0.03906 -0.1875,0.125c-0.01562,0.02344 -0.00781,0.06641 0,0.09375l0.03125,0.125c0.01172,0.03125 0.02344,0.03516 0.0625,0.0625c-0.00781,0.00781 -0.02734,0.02734 -0.03125,0.03125c-0.00781,0.01172 0.00391,0.01953 0,0.03125l-0.03125,0.15625c-0.00391,0.03516 0.00781,0.09766 0.03125,0.125c0.01953,0.02344 0.05859,0.04297 0.125,0.03125l0.28125,-0.0625c0.00781,-0.00391 0.02734,0.00391 0.03125,0l0.21875,-0.09375c0.00391,-0.00391 0.02734,0.00391 0.03125,0c0.00391,0.00391 -0.00391,0.02734 0,0.03125h-0.03125c-0.00781,0.00781 -0.02344,0.01953 -0.03125,0.03125c-0.00391,0.00391 0.00391,0.02344 0,0.03125l-0.0625,0.125c-0.00781,0.03516 0.00781,0.09375 0.03125,0.125c0.02344,0.03125 0.07031,0.05859 0.125,0.0625h0.09375l-0.03125,0.09375c-0.00391,0.01172 0,0.01953 0,0.03125c0,0.00781 0,0.02344 0,0.03125c0.00781,0.03906 -0.00781,0.08594 0,0.125c0.00781,0.01563 0.05078,0.08203 0.0625,0.09375c0.01953,0.01953 0.03516,0.03125 0.0625,0.03125c0.0625,0.00391 0.10547,0 0.15625,0l0.21875,0.15625l-0.03125,0.0625c0,0.00781 0,0.05469 0,0.0625l0.03125,0.125c-0.08984,-0.01562 -0.10547,-0.04687 -0.46875,-0.09375c-0.03125,-0.00781 -0.0625,-0.00781 -0.1875,-0.03125c-0.01562,-0.00391 -0.01953,-0.00391 -0.03125,0l-0.0625,0.03125c-0.02734,0.00781 -0.05078,0.03125 -0.0625,0.0625c-0.00781,0.01172 0.00781,0.01563 0,0.03125h-0.0625c-0.02344,0.00391 -0.04687,0.04297 -0.0625,0.0625c-0.00391,0.00391 -0.02344,-0.00781 -0.03125,0c-0.01953,0.01953 -0.03516,0.06641 -0.03125,0.09375c0.01953,0.125 0.04297,0.30859 0.0625,0.4375l-0.0625,0.34375c0,0.00781 0,0.02344 0,0.03125c0.00391,0.01172 -0.00391,0.03125 0,0.0625c0.00391,0.02344 0.01172,0.04688 0.03125,0.0625l0.0625,0.0625l0.09375,0.25c0.02344,0.0625 0.08984,0.10547 0.15625,0.09375l0.1875,-0.03125l0.09375,0.0625l-0.625,0.53125c-0.01172,0.00781 -0.02734,0.05078 -0.03125,0.0625l-0.09375,0.4375l-0.4375,0.28125l-0.1875,0.09375c-0.02344,0.01172 -0.05078,0.03906 -0.0625,0.0625c-0.08203,0.18359 -0.22656,0.39844 -0.34375,0.59375c-0.05078,0.08594 -0.07422,0.16016 -0.125,0.25l-0.25,0.5c-0.00781,0.01563 -0.00391,0.04688 0,0.0625c0.00391,0.05859 0,0.0625 0,0.09375c0,0.01563 -0.00781,0.05078 0,0.0625c0,0.00391 0.02734,0.02734 0.03125,0.03125l0.0625,0.09375l0.0625,0.46875l-0.3125,0.59375c-0.01953,0.03516 0,0.09375 0.03125,0.125l0.125,0.125c0,0.05859 0.00391,0.125 0,0.1875c-0.00391,0.01172 0,0.01953 0,0.03125v0.03125c0,0.01953 -0.01172,0.04688 0,0.0625l0.09375,0.15625l0.15625,0.15625l0.3125,0.4375c0.00781,0.01172 0.02344,0.02344 0.03125,0.03125l0.1875,0.15625l0.125,0.1875c0.00391,0.00391 0.02734,-0.00391 0.03125,0l0.0625,0.03125c0.00391,0.00391 -0.00391,0.02734 0,0.03125l0.03125,0.03125c0.00781,0.00781 0.01953,-0.00391 0.03125,0l0.4375,0.25l0.15625,0.125c0.01563,0.01172 0.01172,0.02734 0.03125,0.03125c0.00391,0 0.02344,0 0.03125,0c0.07031,0 0.16406,-0.03516 0.21875,-0.0625l0.3125,-0.03125h0.5c0.00391,0 0.02734,-0.03125 0.03125,-0.03125l0.46875,-0.03125c0.01172,0.00391 0.01953,0.00391 0.03125,0h0.0625c0.01172,-0.00391 0.02344,-0.02344 0.03125,-0.03125l0.1875,-0.09375h0.1875l0.125,-0.03125l0.09375,0.28125c0.01563,0.04297 0.08203,0.07031 0.125,0.0625h0.34375l0.125,0.1875l0.03125,0.0625l-0.28125,0.5625c-0.01172,0.02344 -0.01172,0.03906 0,0.0625l0.25,0.59375l0.03125,0.125v0.125c0,0.00391 0,0.03125 0,0.03125c0,0.01563 0.02344,0.01953 0.03125,0.03125c0.00391,0.01563 0.02734,0.04688 0.03125,0.0625c0.00781,0.01563 -0.00391,0.03906 0,0.0625l0.03125,0.0625l-0.0625,0.1875l-0.125,0.6875l-0.21875,0.1875l-0.09375,0.25l-0.0625,0.03125c-0.00781,0.00391 -0.05469,0.02344 -0.0625,0.03125c-0.01562,0.01172 -0.02344,0.01563 -0.03125,0.03125c-0.05469,0.13281 -0.10937,0.25781 -0.15625,0.375c-0.00391,0.01172 0,0.05078 0,0.0625c-0.00391,0.01172 -0.00391,0.01953 0,0.03125l0.0625,0.25c-0.10937,0.40625 -0.23437,0.84375 -0.34375,1.15625c-0.00391,0.00391 -0.03125,0.02734 -0.03125,0.03125v0.09375l-0.09375,0.21875c-0.03906,0.08203 -0.05469,0.11328 -0.125,0.25l-0.09375,0.09375c-0.05859,0.06641 -0.11719,0.16797 -0.15625,0.25l-0.03125,0.0625c-0.01562,0.02344 -0.01172,0.03516 0,0.0625c0.01172,0.02734 0.03516,0.05078 0.0625,0.0625c0.0625,0.02344 0.11328,0.03125 0.15625,0.03125c0.01172,0 0.01953,0.00391 0.03125,0c0.03516,-0.01562 0.08594,-0.03906 0.125,-0.0625v-0.03125c0.16406,-0.03125 0.37891,-0.05469 0.5625,-0.09375l0.34375,-0.15625c0.00781,-0.00391 0.02734,-0.02734 0.03125,-0.03125l0.5,-0.34375c0.00391,-0.00391 0.02734,0.00391 0.03125,0v-0.03125c0.0625,-0.04297 0.21094,-0.125 0.25,-0.15625l0.25,-0.28125l0.125,-0.125l0.0625,-0.03125h0.0625c0.01172,0 0.01953,0.00391 0.03125,0c0.05469,-0.02344 0.08984,-0.08984 0.125,-0.125l0.3125,-0.3125c0.00781,-0.00781 0.02734,-0.02344 0.03125,-0.03125l0.1875,-0.34375l0.03125,-0.03125h0.03125c0.01563,0 0.01953,-0.02344 0.03125,-0.03125c0.05469,-0.02344 0.09375,-0.05469 0.125,-0.09375l0.0625,-0.0625c0.14063,-0.09766 0.30859,-0.23828 0.40625,-0.3125h0.03125c-0.01562,0.01953 -0.01562,0.03906 -0.03125,0.0625c-0.00781,0.00781 -0.02734,0.05469 -0.03125,0.0625l-0.125,0.21875l-0.25,0.21875c-0.01953,0.02344 -0.01953,0.02344 -0.34375,0.5c-0.02344,0.04297 -0.02734,0.09766 -0.03125,0.15625c-0.00391,0.03906 0,0.07422 0.03125,0.09375c-2.03516,2.08594 -4.87891,3.375 -8.03125,3.375c-0.53125,0 -1.05078,-0.05469 -1.5625,-0.125c0.01172,-0.02344 0.00781,-0.07031 0,-0.09375c0.01563,0.00391 0.04688,0.00391 0.0625,0c0.01563,-0.00391 0.01953,-0.02344 0.03125,-0.03125c0.01953,-0.01562 0.05859,-0.03516 0.0625,-0.0625c0.00391,-0.02734 -0.01172,-0.07031 -0.03125,-0.09375l-0.09375,-0.09375c-0.01953,-0.01953 -0.01562,-0.04297 -0.125,-0.09375c-0.01172,-0.00391 -0.01953,0 -0.03125,0c-0.01562,-0.00391 -0.04687,0.02344 -0.0625,0.03125c-0.01953,0.00781 -0.04687,-0.00781 -0.0625,0c-0.03906,0.02344 -0.04687,0.08203 -0.03125,0.125c0.00391,0.01953 0.01563,0.03125 0.03125,0.0625l-0.15625,-0.03125c-0.00781,-0.00391 -0.01953,-0.02734 -0.03125,-0.03125c-0.00781,-0.00391 -0.02344,0 -0.03125,0l-0.03125,-0.03125c-0.00781,-0.00781 -0.02344,-0.02734 -0.03125,-0.03125l-0.125,-0.0625l-0.125,-0.1875c-0.00391,-0.00391 -0.02734,-0.03125 -0.03125,-0.03125c-0.02344,-0.02344 -0.03906,-0.03516 -0.0625,-0.0625c-0.01172,-0.01172 -0.01562,-0.02344 -0.03125,-0.03125l-0.125,-0.03125c0,-0.02344 -0.01562,-0.04297 -0.03125,-0.0625c-0.09766,-0.11328 -0.19141,-0.23437 -0.28125,-0.34375c-0.00781,-0.01172 -0.01953,-0.02734 -0.03125,-0.03125h-0.03125c0.02344,-0.03125 0.05078,-0.08984 0.03125,-0.125c-0.00781,-0.01562 -0.02344,-0.02344 -0.03125,-0.03125l0.125,-0.09375c0.01953,-0.01562 0.02734,-0.03906 0.03125,-0.0625c0.00391,-0.01172 0.00391,-0.01953 0,-0.03125l-0.03125,-0.21875c-0.00391,-0.01953 0.01563,-0.04687 0,-0.0625c-0.01562,-0.01562 -0.04687,-0.01953 -0.0625,-0.03125c0.01953,-0.00781 0.05078,-0.04297 0.0625,-0.0625c0.00781,-0.00781 0.02734,-0.01953 0.03125,-0.03125l0.03125,-0.15625l0.03125,-0.03125c0.01172,-0.01172 -0.00391,-0.01562 0,-0.03125l0.0625,-0.21875c0.00781,-0.01172 0.02734,-0.05078 0.03125,-0.0625c0.00391,-0.01172 0,-0.01953 0,-0.03125v-0.09375c0.02734,-0.02734 0.04688,-0.08984 0.03125,-0.125l-0.1875,-0.5c0.22656,-0.125 0.50391,-0.26172 0.71875,-0.375c0.02734,-0.01562 0.02734,-0.03125 0.03125,-0.0625l0.03125,-0.15625c0.03516,-0.23047 0.05859,-0.50781 0.09375,-0.71875c0.00391,-0.01172 0.00391,-0.01953 0,-0.03125l-0.125,-0.59375l0.0625,-0.0625l0.09375,-0.03125c0.01172,-0.00391 0.01953,-0.02344 0.03125,-0.03125l0.03125,-0.03125l0.375,-0.6875c0.00781,-0.01172 0.02734,-0.05078 0.03125,-0.0625c0,-0.01172 0.00391,-0.02344 0,-0.03125l-0.125,-0.53125c-0.00781,-0.02734 -0.03516,-0.05078 -0.0625,-0.0625c-0.28125,-0.14453 -0.63281,-0.32031 -0.9375,-0.46875c-0.00391,-0.00391 -0.02734,-0.02734 -0.03125,-0.03125l-0.78125,-0.09375l-0.25,-0.09375l-0.3125,-0.21875c-0.00391,-0.00391 -0.02344,-0.02734 -0.03125,-0.03125l-0.0625,-0.03125c0.01563,-0.02734 0.01563,-0.06641 0,-0.09375c-0.00781,-0.01562 -0.02344,-0.05078 -0.03125,-0.0625c-0.01953,-0.02344 -0.03516,-0.03906 -0.0625,-0.03125h-0.03125l-0.21875,-0.1875l-0.28125,-0.40625c-0.00391,-0.01562 -0.01953,-0.01953 -0.03125,-0.03125l-0.03125,-0.03125c-0.01172,-0.01172 -0.01562,-0.02734 -0.03125,-0.03125l-0.46875,-0.21875l-0.15625,-0.125c-0.01953,-0.01562 -0.03516,-0.00391 -0.0625,0l-0.3125,0.03125l-0.3125,-0.34375l0.03125,-0.03125c0.03516,-0.01562 0.05859,-0.02734 0.0625,-0.0625c0.00781,-0.07422 0.00391,-0.14062 0,-0.1875l0.09375,-0.09375c0.01953,-0.01953 0.03125,-0.03516 0.03125,-0.0625v-0.0625c0,-0.05469 -0.04297,-0.08984 -0.09375,-0.09375c-0.12891,-0.00781 -0.23828,0 -0.34375,0c0,-0.00781 0,-0.02734 0,-0.03125c0,-0.01953 0.00781,-0.03906 -0.03125,-0.15625c0.03906,-0.02344 0.0625,-0.04687 0.0625,-0.09375c0,-0.01953 -0.00391,-0.02344 -0.0625,-0.1875c-0.00391,-0.02734 -0.00781,-0.08203 -0.03125,-0.15625c0.01563,-0.00781 0.01953,-0.01172 0.03125,-0.03125c0.03125,-0.05469 0.02344,-0.08594 -0.03125,-0.25c-0.00391,-0.00781 0.00391,-0.02344 0,-0.03125c0.00781,-0.02344 0.00781,-0.03906 0,-0.0625c0.05078,-0.01953 0.08984,-0.06641 0.09375,-0.125c0,-0.01953 -0.00781,-0.01562 -0.0625,-0.1875c-0.02344,-0.04297 -0.0625,-0.08203 -0.09375,-0.09375c0.00391,-0.03906 -0.00781,-0.06641 -0.03125,-0.09375c-0.02344,-0.02734 -0.05078,-0.05859 -0.09375,-0.0625h-0.03125c-0.01172,-0.04687 -0.0625,-0.07812 -0.125,-0.09375c-0.08594,-0.02344 -0.17969,-0.04297 -0.28125,-0.0625c-0.05078,-0.00781 -0.09766,-0.02734 -0.125,-0.03125c-0.01562,-0.00391 -0.04687,-0.00391 -0.0625,0c-0.03516,0.00781 -0.07422,0.03516 -0.09375,0.0625c-0.03906,-0.02734 -0.05859,-0.06641 -0.09375,-0.09375l-0.09375,-0.0625c-0.01953,-0.01953 -0.06641,-0.03906 -0.09375,-0.03125c-0.04297,0.00391 -0.10156,0.02344 -0.125,0.0625l-0.28125,-0.15625l-0.125,-0.0625c-0.01562,-0.01172 -0.02734,-0.02344 -0.0625,-0.03125c-0.01562,-0.00391 -0.04687,-0.00391 -0.0625,0c0.05469,-0.01562 0.08984,-0.05469 0.09375,-0.09375c0.00781,-0.04297 -0.00781,-0.06641 -0.09375,-0.28125c-0.02344,-0.05859 -0.07031,-0.07812 -0.125,-0.0625c-0.02344,0.00781 -0.0625,0.01563 -0.09375,0.0625c-0.01953,0.03516 -0.04297,0.08203 -0.0625,0.125l-0.03125,0.03125c-0.10547,-0.07422 -0.19922,-0.14062 -0.3125,-0.21875c-0.16016,-0.10937 -0.33203,-0.24609 -0.46875,-0.34375c-0.01562,-0.01172 -0.04687,0 -0.0625,0c-0.01172,0 -0.02344,-0.00391 -0.03125,0l-0.28125,0.0625c-0.00781,0.00391 -0.02344,-0.00391 -0.03125,0c-0.05078,0.01953 -0.05078,0.03516 -0.1875,0.34375c-0.01562,-0.01562 -0.04687,-0.02344 -0.0625,-0.03125c-0.01562,-0.00391 -0.01562,-0.03516 -0.03125,-0.03125l-0.46875,0.09375c-0.03906,0.00391 -0.05078,0.02344 -0.0625,0.0625l-0.125,0.375l-0.125,0.03125l-0.125,-0.34375l0.125,-0.6875l0.09375,-0.3125l0.09375,-0.15625c0.11328,-0.17578 0.23438,-0.375 0.34375,-0.53125h0.15625l0.21875,0.21875c0.03125,0.03125 0.08594,0.02344 0.125,0c0.08984,-0.05078 0.13281,-0.16016 0.15625,-0.25l0.28125,0.09375l-0.03125,0.8125c-0.00391,0.03906 0,0.07813 0.03125,0.09375c0.08594,0.04297 0.14453,0.03125 0.1875,0.03125c0.02344,0 0.07813,-0.01562 0.09375,-0.03125h0.03125l0.03125,0.125c0.01172,0.03516 0.03906,0.07813 0.125,0.09375h0.125c0.00391,0 0.02734,0 0.03125,0c0.05859,-0.00781 0.08203,-0.04297 0.09375,-0.09375c0.01172,-0.03516 0.01563,-0.03125 -0.03125,-0.28125c-0.01562,-0.0625 -0.0625,-0.125 -0.125,-0.125h-0.09375l0.09375,-0.25c0.02344,-0.16797 0.03125,-0.33594 0.0625,-0.5l0.25,-0.40625h0.03125c0.01563,0 0.01563,0.00781 0.03125,0l0.28125,-0.1875c0.16797,-0.11719 0.35156,-0.24219 0.5,-0.34375c0.01172,-0.00781 0.02344,-0.01953 0.03125,-0.03125c0.02734,-0.03906 0.02734,-0.07031 0.03125,-0.09375c0.02344,-0.11328 0.06641,-0.20312 0.09375,-0.3125c0.00781,0.00391 0.02344,-0.00781 0.03125,0c0.03906,0.03125 0.08984,0.03516 0.125,0l0.40625,-0.4375c0.00781,-0.00781 0.02734,0.00781 0.03125,0l0.0625,-0.09375l0.4375,-0.0625c0.02344,-0.00391 0.07813,-0.01172 0.09375,-0.03125l0.125,-0.125c0.02344,-0.02734 0.01172,-0.08984 0,-0.125l0.09375,-0.125h0.09375c0.01172,0 0.02344,-0.02734 0.03125,-0.03125c0.00391,0 0.02734,0.00391 0.03125,0l0.3125,-0.15625v0.09375c-0.00781,0.02734 -0.01953,0.03906 0,0.0625l0.03125,0.03125c0.02734,0.03125 0.08984,0.04688 0.125,0.03125c0.16016,-0.0625 0.34766,-0.11719 0.53125,-0.1875l0.1875,-0.09375c0.01563,-0.00391 0.05078,-0.01953 0.0625,-0.03125l0.03125,-0.03125h0.125c0.04688,-0.00391 0.05469,-0.02734 0.1875,-0.125c0.01172,-0.01172 0.02734,-0.01953 0.03125,-0.03125c0.02734,-0.05859 0.00781,-0.11328 -0.03125,-0.15625l0.03125,-0.125c0.00391,-0.02734 -0.01172,-0.07031 -0.03125,-0.09375c-0.02344,-0.02734 -0.07031,-0.05859 -0.125,-0.0625c-0.05859,0.00391 -0.05078,0.00391 -0.34375,0.3125l-0.0625,-0.0625c0.01172,-0.03906 0.02344,-0.08594 0.03125,-0.125c0.02344,0 0.04688,-0.01562 0.0625,-0.03125l0.125,-0.125c0.02344,-0.01953 0.03516,-0.09375 0.03125,-0.125c-0.00391,-0.02344 -0.01562,-0.04687 -0.03125,-0.0625h0.46875c-0.01953,0.01172 -0.05859,0.03906 -0.0625,0.09375c-0.00391,0.03125 -0.01562,0.03906 0,0.0625l-0.03125,0.09375c-0.01562,0.02734 -0.01562,0.09766 0,0.125c0.02734,0.05859 0.02344,0.04297 0.3125,0.09375l0.03125,0.0625c0.01172,0.01563 0.05078,0.05859 0.125,0.0625h0.09375c0.02734,-0.00391 0.03516,-0.01172 0.0625,-0.03125c0.01953,0.01563 0.05859,0.02344 0.09375,0.03125h0.09375c0.04297,-0.00781 0.05469,-0.01953 0.25,-0.15625c0.01172,-0.01172 0.02344,-0.02344 0.03125,-0.0625c0.00391,-0.02344 0.02734,-0.05859 0.03125,-0.09375c0,-0.05469 -0.01953,-0.07031 -0.0625,-0.09375v-0.03125c0.01172,-0.02734 0.03906,-0.07031 0.03125,-0.09375c-0.01562,-0.03516 -0.04687,-0.05859 -0.125,-0.09375l0.15625,-0.15625c0.03906,-0.03516 0.05078,-0.07422 0.03125,-0.125c-0.01172,-0.02734 -0.03125,-0.05078 -0.0625,-0.0625l0.125,-0.15625c0.01563,-0.02344 0.00781,-0.06641 0,-0.09375c-0.01172,-0.03125 -0.02734,-0.05469 -0.0625,-0.0625l-0.21875,-0.03125c0.00781,-0.00781 0.02734,-0.02344 0.03125,-0.03125c0.02734,-0.07812 0.04688,-0.16406 0.0625,-0.21875c0.00781,-0.04297 -0.02734,-0.10156 -0.0625,-0.125l-0.03125,-0.03125l0.03125,-0.09375c0.04688,-0.29687 0.08984,-0.42578 0.09375,-0.4375c0.00781,-0.04297 -0.02734,-0.10156 -0.0625,-0.125c0.03906,-0.01562 0.03906,-0.03516 0.125,-0.1875c0.00781,0.00391 0.02344,-0.00391 0.03125,0c0.00781,0 0.02344,0.03125 0.03125,0.03125h0.0625c0.05859,-0.00391 0.06641,-0.02344 0.3125,-0.28125c0.01953,0.01172 0.04688,0.03125 0.0625,0.03125c0.05078,0 0.06641,-0.00391 0.46875,-0.21875c0.00781,-0.00391 0.02734,-0.02734 0.03125,-0.03125c0.01953,-0.01562 0.02734,-0.03906 0.03125,-0.0625c0.00781,-0.05078 0.00391,-0.04297 -0.21875,-0.3125l0.125,-0.125c0.03516,-0.06641 0.02734,-0.09766 -0.1875,-0.40625c-0.00781,-0.01172 -0.02344,0.00781 -0.03125,0c-0.00781,-0.00781 -0.02344,-0.02734 -0.03125,-0.03125c0.02734,-0.01953 0.05469,-0.04687 0.125,-0.125c0.00391,-0.00391 -0.00391,-0.02734 0,-0.03125c0.01563,0.00781 0.04688,0.00391 0.0625,0c0.09766,-0.01953 0.19531,-0.06641 0.28125,-0.125c0.02344,-0.01562 0.04297,-0.05078 0.0625,-0.0625h0.03125c0.00781,0 0.02344,0.00391 0.03125,0l0.15625,-0.03125c0.01563,-0.00781 0.04688,-0.01172 0.0625,-0.03125c0,0.01563 0.02344,0.01563 0.03125,0.03125c-0.00781,0.02344 -0.02344,0.03906 -0.03125,0.0625c-0.00391,0.01172 0,0.05078 0,0.0625c0,0.01172 -0.00391,0.02344 0,0.03125l0.03125,0.0625c0.00781,0.02344 0.04297,0.05078 0.0625,0.0625c0.01563,0.00781 0.04297,0 0.0625,0c0.09375,0.00391 0.17969,0.00391 0.25,0l0.09375,0.03125v0.0625l-0.0625,0.1875c-0.00781,0.01563 -0.00391,0.07813 0,0.09375c0.00391,0.01953 0.01563,0.01563 0.03125,0.03125c-0.01172,0.02344 -0.01172,0.06641 0,0.09375c0.00781,0.01953 0.01953,0.04297 0.03125,0.0625v0.03125c0.00781,0.01172 0.02344,0.02344 0.03125,0.03125h-0.15625c-0.05078,0.00781 -0.03125,0.00391 -0.25,0.1875c-0.01172,0.01172 -0.02344,0.04688 -0.03125,0.0625c-0.00391,0.00781 -0.03125,-0.00781 -0.03125,0l-0.03125,0.21875c-0.00391,0.01563 -0.00391,0.01563 0,0.03125c0.00781,0.01953 0.05078,0.04688 0.0625,0.0625c0,0.00391 -0.03125,0.02734 -0.03125,0.03125h-0.03125c-0.00781,0.00391 -0.02344,0.02734 -0.03125,0.03125c-0.01172,0.01172 -0.05078,0.02344 -0.0625,0.0625c-0.00391,0.01953 -0.00391,0.04297 0,0.0625l0.125,0.4375c0.00391,0.01953 0.01563,0.01563 0.03125,0.03125c0.01953,0.01563 0.04688,0.02344 0.0625,0.03125c0.01172,0.00391 0.01953,0.03125 0.03125,0.03125h0.09375l0.0625,0.09375c0.00781,0.01172 0.01953,0.02344 0.03125,0.03125c0.03125,0.02344 0.07813,0.04297 0.125,0.03125l0.21875,-0.03125c0.01172,-0.00391 0.01953,-0.02344 0.03125,-0.03125l0.15625,-0.125c0.14063,-0.14453 0.27734,-0.33203 0.40625,-0.46875l0.3125,-0.09375c0.00781,0 0.02734,-0.02734 0.03125,-0.03125l0.0625,-0.03125l0.03125,0.03125c0.00781,0.00391 0.02344,0 0.03125,0c0.05078,0 0.08203,-0.03125 0.25,-0.15625l0.3125,-0.15625l0.15625,0.03125c0.00781,0.00391 0.02344,0.00391 0.03125,0h0.03125c0.19141,-0.07031 0.46484,-0.17578 0.65625,-0.25c0.03906,0 0.07813,-0.02734 0.09375,-0.0625l0.03125,-0.0625c0.02344,-0.04687 0.04297,-0.11719 0.0625,-0.15625c0.00781,-0.01562 0.03516,-0.01172 0.03125,-0.03125c-0.00391,-0.02734 -0.01172,-0.04297 -0.03125,-0.0625c0.02344,-0.01562 0.02734,-0.06641 0.03125,-0.09375l0.0625,-0.3125c0.00391,-0.01562 0.00781,-0.04297 0,-0.0625c0.01172,-0.02344 0.01172,-0.03516 0,-0.0625c-0.03125,-0.06641 -0.0625,-0.16016 -0.09375,-0.21875c0.01953,-0.00781 0.01953,-0.01172 0.03125,-0.03125l0.0625,0.03125c0.03125,0.01172 0.06641,-0.00781 0.09375,-0.03125l0.0625,-0.0625c0.01953,-0.01953 0.03125,-0.03516 0.03125,-0.0625v-0.03125c0,-0.01953 0.01172,-0.04687 0,-0.0625c-0.05859,-0.08203 -0.16406,-0.10547 -0.25,-0.125c-0.02734,-0.00781 -0.05469,0.01172 -0.09375,0c-0.00391,0 -0.02734,0 -0.03125,0c-0.03516,0 -0.05859,-0.01172 -0.09375,0c-0.00391,-0.01953 -0.01562,-0.01562 -0.03125,-0.03125c-0.01953,-0.01953 -0.04297,-0.06641 -0.0625,-0.09375c-0.01953,-0.03906 -0.04297,-0.08594 -0.09375,-0.125c-0.08594,-0.07031 -0.18359,-0.07812 -0.28125,-0.09375c-0.16797,-0.01953 -0.36719,-0.01562 -0.53125,0c-0.0625,0.00391 -0.12891,0.00391 -0.1875,0c-0.06641,-0.00391 -0.13281,-0.00781 -0.1875,0c-0.03516,0.00391 -0.06641,0.01953 -0.09375,0.03125c-0.02344,-0.01172 -0.08594,-0.00781 -0.125,0c-0.11328,0.02734 -0.20703,0.10547 -0.3125,0.1875c-0.02344,0.01953 -0.07031,0.04297 -0.09375,0.0625c-0.01562,-0.03125 -0.05859,-0.0625 -0.09375,-0.0625c-0.09375,-0.00391 -0.09766,0 -0.125,-0.03125c-0.00781,-0.01172 0.00391,-0.04687 0,-0.0625c-0.01562,-0.05078 -0.06641,-0.13281 -0.1875,-0.15625c-0.00391,0 -0.02344,0 -0.03125,0c-0.03125,0 -0.07031,0.02344 -0.09375,0.03125c0.00391,0 0,-0.02734 0,-0.03125c0,-0.04687 0,-0.14453 -0.15625,-0.1875c-0.01953,-0.00391 -0.03906,0 -0.0625,0c-0.02344,0 -0.12891,-0.00781 -0.1875,0.03125c-0.05469,0.03516 -0.0625,0.07813 -0.0625,0.09375c-0.01562,0.01172 -0.00781,0.02344 -0.03125,0.03125c-0.01953,0.00781 -0.07422,0.01563 -0.09375,0.03125c-0.03516,0.02344 -0.06641,0.06641 -0.09375,0.09375c-0.02734,0.03125 -0.05078,0.07031 -0.09375,0.0625c-0.02734,-0.01172 -0.03906,-0.01172 -0.0625,0c-0.07812,0.03516 -0.11719,0.07813 -0.125,0.125c-0.03516,0.03516 -0.08203,0.10156 -0.09375,0.15625c-0.01562,0.01172 -0.0625,0.01172 -0.09375,0.03125v-0.125c-0.01172,-0.05078 -0.08203,-0.09766 -0.125,-0.09375c-0.04297,0.00391 -0.05859,0.04688 -0.09375,0.09375l-0.1875,0.09375c-0.00781,0.00391 -0.02344,0.02344 -0.03125,0.03125l-0.15625,0.1875c-0.02344,0.02734 -0.04687,0.05859 -0.03125,0.09375v0.03125c-0.01953,-0.02734 -0.02734,-0.03906 -0.125,-0.0625v-0.03125l0.09375,-0.125c0.01563,-0.02734 0.01563,-0.0625 0,-0.09375c-0.01562,-0.03516 -0.05469,-0.05859 -0.09375,-0.0625c-0.04297,0.00391 -0.05859,-0.01953 -0.21875,0.09375c-0.00781,0.00391 -0.02734,0.02734 -0.03125,0.03125l-0.0625,0.15625c-0.01172,-0.00781 -0.01953,-0.02734 -0.03125,-0.03125c0.01172,-0.01953 0,-0.04297 0,-0.0625c-0.00391,-0.05078 -0.02734,-0.07422 -0.09375,-0.125c-0.01953,-0.01172 -0.03906,-0.00781 -0.0625,0c-0.01953,0.00391 -0.04687,-0.00391 -0.125,0.03125c-0.05859,-0.02734 -0.13281,0.01172 -0.15625,0.03125c-0.01953,0.01953 -0.04687,0.04297 -0.0625,0.0625c-0.01953,-0.03906 -0.05078,-0.06641 -0.09375,-0.0625l-0.34375,0.03125c-0.00391,0 -0.02734,-0.00391 -0.03125,0l-0.21875,0.09375c-0.05469,0.02344 -0.06641,0.03516 -0.125,0.125c-0.01172,0 -0.01953,0 -0.03125,0h-0.1875c-0.00781,0 -0.02344,-0.00391 -0.03125,0c-0.00391,0 -0.02734,0.03125 -0.03125,0.03125l-0.375,0.15625c-0.00781,0.00391 -0.02344,-0.00391 -0.03125,0l-0.21875,0.15625c-0.03516,0.02344 -0.05078,0.0625 -0.0625,0.09375c-0.01172,0.03906 0,0.07031 0.03125,0.09375c-0.01172,0.01172 -0.02344,0.01563 -0.03125,0.03125l-0.03125,-0.0625c-0.00781,-0.02734 -0.03516,-0.05078 -0.0625,-0.0625c-0.00391,-0.01172 0.00781,-0.01953 0,-0.03125c-0.02344,-0.03125 -0.08594,-0.04687 -0.125,-0.03125h-0.0625c1.67188,-0.98437 3.60156,-1.5625 5.6875,-1.5625zM16.8125,2.6875l-0.125,0.03125c-0.01172,0.00391 -0.01953,-0.00781 -0.03125,0l-0.0625,0.03125c-0.01172,-0.00391 -0.04687,-0.00391 -0.0625,0c-0.02734,0.00391 -0.04687,0.01953 -0.0625,0.03125h-0.15625c-0.03906,0 -0.07812,-0.00391 -0.09375,0.03125c-0.00781,0.01563 0,0.04688 0,0.0625c0,0.06641 0.00391,0.08984 0.15625,0.1875c0.00391,0.00391 0.02734,-0.00391 0.03125,0l0.125,0.0625c0.02344,0.01172 0.07031,0.00391 0.09375,0l0.0625,0.09375c0.03125,0.03906 0.02734,0.0625 0.3125,0.15625c0.01172,0 0.02344,0.00391 0.03125,0c0.03125,-0.00391 0.05078,-0.03516 0.0625,-0.0625c0.01563,-0.02734 0.04297,-0.06641 0.03125,-0.09375h0.09375c0.03516,-0.00781 0.08203,-0.02734 0.09375,-0.0625c0.01563,-0.03906 0,-0.09766 -0.03125,-0.125c-0.01172,-0.00781 -0.01953,-0.01172 -0.125,-0.0625c0.01563,-0.04297 -0.02344,-0.07031 -0.09375,-0.1875c-0.00391,-0.00781 0.00781,-0.02344 0,-0.03125c-0.03125,-0.02734 -0.05469,-0.02344 -0.1875,-0.0625c-0.00781,-0.00391 -0.02344,0 -0.03125,0c-0.00781,0 -0.02344,0 -0.03125,0zM9.625,3.9375c0.03906,0.01563 0.10547,0.01563 0.15625,0.03125l-0.15625,0.125c-0.00391,0.00391 0.00391,0.02734 0,0.03125l-0.09375,0.09375h-0.1875zM19.46875,3.9375c0.01172,0.00391 0.05078,0 0.0625,0c0.01172,0 0.01953,0.00391 0.03125,0h0.03125c0.01953,0.01172 0.04297,0.01953 0.0625,0.03125c-0.00781,0.01563 -0.03125,0.01563 -0.03125,0.03125v0.0625zM9.25,4.25c-0.01562,0.01172 -0.03516,0.01563 -0.0625,0.03125c-0.00391,0.00391 -0.02734,0.02734 -0.03125,0.03125l-0.125,0.125c-0.01172,0.01953 -0.0625,0.07031 -0.03125,0.125l-0.09375,-0.03125c-0.00781,-0.00391 -0.02344,0.00391 -0.03125,0l0.03125,-0.1875c0.00391,-0.01172 0.00391,-0.01953 0,-0.03125zM14.625,4.28125c-0.03125,0 -0.07422,0.01953 -0.28125,0.0625c-0.04297,0.01563 -0.05078,0.02344 -0.0625,0.0625c-0.01172,0.03516 0.00391,0.10156 0.03125,0.125c0.03516,0.03125 0.08203,0.07031 0.125,0.09375l-0.03125,0.0625c-0.00781,0.02344 -0.01172,0.07031 0,0.09375c0.02734,0.05859 0.01172,0.07422 0.5,0.21875c0.00781,0.00391 0.02344,0 0.03125,0c0.03516,0 0.03516,0.01172 0.5625,-0.21875c0.05859,-0.03906 0.07031,-0.12109 0.0625,-0.15625c-0.00781,-0.02734 -0.01953,-0.05469 -0.03125,-0.09375c-0.00781,-0.01562 -0.01953,-0.01953 -0.03125,-0.03125c-0.00391,-0.00391 0.00391,-0.02734 0,-0.03125l-0.21875,-0.15625c-0.01953,-0.01562 -0.07422,-0.02734 -0.125,-0.03125l-0.375,0.0625l-0.09375,-0.03125c-0.01562,-0.00781 -0.04687,-0.03125 -0.0625,-0.03125zM8.0625,4.5625h0.1875l-0.03125,0.03125c-0.00781,0.05078 0.04688,0.08203 0.09375,0.09375c0.0625,0.01953 0.08984,0.03125 0.125,0.03125c0.01172,0 0.05078,-0.02734 0.0625,-0.03125h0.09375c-0.07031,0.06641 -0.12891,0.14063 -0.1875,0.21875c-0.03906,0.05078 -0.08984,0.11719 -0.125,0.15625l-0.21875,0.0625c-0.01953,0.00781 -0.01953,0.01172 -0.03125,0.03125l-0.25,0.375l-0.46875,0.15625c-0.02344,0.00781 -0.05078,0.03906 -0.0625,0.0625c-0.00781,0.01563 0.00781,0.01563 0,0.03125h-0.03125l-0.125,-0.21875l-0.0625,-0.25c-0.00781,-0.02734 -0.03516,-0.05078 -0.0625,-0.0625c0.01953,-0.01562 0.02734,-0.03516 0.03125,-0.0625l0.03125,-0.0625l0.3125,-0.21875c0.10938,-0.04297 0.21875,-0.10547 0.34375,-0.15625l0.28125,-0.09375c0.01172,-0.00391 0.01953,-0.02344 0.03125,-0.03125c0.00781,-0.00781 0.02344,-0.02344 0.03125,-0.03125c0.01953,-0.01562 0.02734,-0.00781 0.03125,-0.03125zM9.375,4.59375l0.03125,0.03125l-0.03125,0.03125c-0.0625,0.10156 -0.01562,0.12109 0.3125,0.34375l-0.34375,0.15625l0.0625,-0.09375c0.03516,-0.03516 0.03516,-0.08594 0,-0.125l-0.21875,-0.25c-0.00781,-0.00391 -0.02344,-0.02734 -0.03125,-0.03125l-0.09375,-0.03125c0.05859,0.02734 0.09375,0.00391 0.3125,-0.03125zM19.03125,5.34375l0.15625,0.0625c0.01953,0.00781 0.04297,0.03906 0.0625,0.03125c0.01953,0.0625 0.03516,0.08203 0.0625,0.125c0.00391,0.01172 0.02344,0.02344 0.03125,0.03125c0.01172,0.00781 0.01953,0.02344 0.03125,0.03125c-0.00781,0.01953 -0.00781,0.04297 0,0.0625l0.0625,0.1875c-0.07422,-0.01953 -0.17187,0.01172 -0.25,0.03125c-0.01953,0.00781 -0.04297,0.02734 -0.0625,0.03125c-0.00781,0 -0.02734,-0.00391 -0.03125,0l-0.21875,0.09375v-0.03125c0.04297,-0.01562 0.06641,-0.04687 0.0625,-0.09375v-0.21875l0.03125,-0.09375l0.03125,-0.21875c0.00391,-0.01172 0.03125,-0.02344 0.03125,-0.03125zM21.375,7.65625c0.00781,0.01172 0.01953,0.01953 0.03125,0.03125c0.20703,0.1875 0.19922,0.1875 0.25,0.1875c0.01953,0 0.01563,0.01172 0.03125,0c0.01953,-0.00781 0.05078,-0.01562 0.0625,-0.03125c0.01563,-0.02344 0.05078,-0.04297 0.0625,-0.0625l0.34375,0.21875l0.125,0.09375l-0.125,0.03125c-0.14062,-0.09766 -0.14844,-0.09375 -0.1875,-0.09375c-0.01172,0 -0.05078,-0.00391 -0.0625,0c-0.06641,0.02344 -0.14453,0.06641 -0.21875,0.09375c-0.0625,0.02344 -0.12891,0.04297 -0.1875,0.0625h-0.0625l-0.125,-0.125c-0.00391,-0.00391 0.00391,-0.02344 0,-0.03125c0.00781,-0.01562 0.03125,-0.03516 0.03125,-0.0625l-0.03125,-0.0625c0.01563,-0.01562 0.02734,-0.04297 0.03125,-0.0625c0.00781,-0.01953 0,-0.04297 0,-0.0625zM18.78125,8.09375c-0.00391,0.00391 0.00391,0.02734 0,0.03125c-0.01172,0.01563 0.00391,0.01172 0,0.03125c-0.00391,0.00781 -0.01172,0.03125 0,0.09375c0.01172,0.03516 0.02344,0.08984 0.03125,0.125c0.00781,0.01953 0.01953,0.05078 0.03125,0.0625c-0.00391,0.01953 -0.00391,0.03125 0,0.0625v0.0625c0.01563,0.0625 0.04688,0.12109 0.0625,0.1875c0.01953,0.08203 0.06641,0.11719 0.09375,0.125c0.01563,0.00391 0.04688,0.00391 0.0625,0c0.00391,0 0.02734,-0.02734 0.03125,-0.03125l0.125,-0.03125c0.05078,-0.01562 0.09375,-0.07031 0.09375,-0.125c0,-0.01953 0.00781,-0.03125 -0.0625,-0.25c-0.01562,-0.03906 -0.05078,-0.07812 -0.09375,-0.09375c0.00781,-0.02344 0.02344,-0.02734 0.03125,-0.0625l0.15625,0.15625c0.00781,0.00781 0.05469,0.02734 0.0625,0.03125l0.34375,0.1875l0.0625,0.03125l0.03125,0.09375l-0.25,-0.0625c-0.01953,-0.00391 -0.07422,0.02344 -0.09375,0.03125c-0.03906,0.01953 -0.06641,0.05078 -0.0625,0.09375c0.00391,0.03125 0.02344,0.08203 0.03125,0.125c0.00391,0.01563 -0.01172,0.01953 0,0.03125c0.07031,0.08984 0.18359,0.15625 0.28125,0.21875c0.01172,0.00781 0.02344,0.02344 0.03125,0.03125c-0.0625,0.01172 -0.09375,0.05469 -0.09375,0.125c-0.01172,-0.04687 -0.02344,-0.08594 -0.03125,-0.125c-0.00391,-0.02344 -0.01562,-0.04687 -0.03125,-0.0625l-0.09375,-0.0625l-0.15625,-0.09375c-0.02344,-0.01172 -0.03906,-0.03125 -0.0625,-0.03125c-0.01172,0 -0.05078,-0.00391 -0.0625,0l-0.15625,0.0625l-0.90625,0.0625c-0.00781,0 -0.02344,-0.00391 -0.03125,0l-0.59375,0.21875h-0.21875c0.00781,-0.00781 -0.00391,-0.02344 0,-0.03125l0.21875,-0.03125c0.01172,0 0.02344,0.00391 0.03125,0h0.03125c0.01172,-0.00391 0.02344,-0.02344 0.03125,-0.03125l0.1875,-0.15625l0.03125,-0.03125c0.02734,-0.03125 0.0625,-0.06641 0.09375,-0.09375c0.02734,-0.02734 0.04297,-0.08594 0.03125,-0.125l-0.09375,-0.21875l0.03125,-0.0625l0.09375,-0.03125h0.03125c0.01172,0 0.01953,0.00391 0.03125,0c0.00391,0 0.02734,-0.03125 0.03125,-0.03125l0.09375,-0.0625c0.03125,-0.01562 0.05859,-0.03125 0.0625,-0.0625l0.03125,-0.1875v-0.03125l0.28125,0.0625c0.01953,0 0.04688,-0.01953 0.0625,-0.03125zM20.28125,8.6875h0.03125c0.02344,0 0.04688,0.01172 0.0625,0l0.03125,0.03125c0.00781,0.01172 -0.00781,0.02344 0,0.03125c0.00781,0.00781 0.01563,0.01953 0.03125,0.03125c0.01563,0.01172 0.04297,0.02734 0.0625,0.03125l0.125,0.15625c0.01563,0.01953 0.03906,0.02734 0.0625,0.03125c0.01172,0.00391 0.01953,-0.00391 0.03125,0c0,0.00391 -0.00391,0.02734 0,0.03125c0.02344,0.03906 0.06641,0.07813 0.09375,0.125l0.03125,0.0625c0.00781,0.01563 0.01563,0.05078 0.03125,0.0625h0.03125c0.01563,0.01172 0.04297,0.03125 0.0625,0.03125h0.09375c-0.00391,0.01172 0,0.01563 0,0.03125c0.00781,0.02344 0.00391,0.01172 0.0625,0.125c0.03516,0.05859 0.02734,0.07422 0.4375,0.15625c0.11719,-0.01172 0.13672,-0.10937 0.125,-0.28125l0.03125,0.03125c0.02344,0.02344 0.05859,0.03906 0.09375,0.03125l0.1875,-0.0625c0.01563,-0.00391 0.01953,0.00781 0.03125,0h0.03125c-0.01562,0.01563 -0.02734,0.04688 -0.03125,0.0625c-0.00781,0.04688 -0.00781,0.08984 0.03125,0.125c0.01172,0.00781 0.03906,0.00781 0.1875,0.09375c0.00781,0.00391 -0.00781,0.02734 0,0.03125h0.03125c0.01953,0.00391 0.04297,-0.02344 0.0625,-0.03125c0.01563,-0.00781 0.01953,-0.01953 0.03125,-0.03125l0.0625,-0.0625c0.01172,0.03906 0.01953,0.08594 0.03125,0.125l-0.03125,0.40625l-0.25,-0.09375c-0.04297,-0.01172 -0.07031,0.02734 -0.09375,0.0625l-0.09375,0.09375l-0.375,-0.15625c-0.01172,-0.00391 -0.01953,-0.00391 -0.03125,0c-0.05859,0.00391 -0.10937,0 -0.15625,0l-0.03125,-0.03125c-0.01562,-0.02344 -0.03516,-0.05859 -0.0625,-0.0625c-0.12891,-0.01953 -0.21484,0 -0.3125,0c-0.01172,0 -0.01953,-0.00391 -0.03125,0c-0.00781,0.00391 -0.02734,-0.00391 -0.03125,0l-0.09375,0.0625c-0.02344,0.01563 -0.05859,0.03516 -0.0625,0.0625l-0.03125,0.1875l-0.4375,-0.25c-0.00391,-0.00391 -0.02734,0.00391 -0.03125,0l-0.46875,-0.125l-0.125,-0.0625c0.01172,-0.01953 0,-0.03906 0,-0.0625c-0.00781,-0.09766 -0.01953,-0.16797 -0.03125,-0.25c0.01172,0.03516 0.04297,0.05469 0.0625,0.09375c0.01172,0.01953 0.01953,0.0625 0.03125,0.09375c0.03516,0.0625 0.07813,0.05859 0.09375,0.0625c0.01172,0.00391 0.01953,0.00391 0.03125,0c0.0625,-0.00781 0.08594,-0.03125 0.1875,-0.1875c0.00781,-0.01172 -0.00391,-0.01953 0,-0.03125c0.00391,-0.01562 0.00391,-0.01562 0,-0.03125c-0.00391,-0.02344 0.01172,-0.04687 0,-0.0625c0.04688,-0.01953 0.05859,-0.07031 0.0625,-0.125v-0.15625c0.02734,-0.00781 0.05078,-0.03516 0.0625,-0.0625l0.09375,-0.1875c0.01563,-0.02734 0.01563,-0.06641 0,-0.09375zM21.28125,8.96875c0.01563,0.01953 0.05469,0.02734 0.0625,0.03125l0.125,0.21875c-0.05469,-0.00391 -0.13281,-0.02734 -0.1875,-0.03125v-0.03125c0.01953,-0.01953 0.03125,-0.03516 0.03125,-0.0625c0,-0.05469 -0.02344,-0.08984 -0.03125,-0.125zM3.125,12.03125c0.00781,0.00781 0.01953,0.02344 0.03125,0.03125v0.03125c-0.01172,0.03906 -0.01953,0.07813 0,0.1875c0.01563,0.04688 0.02344,0.03906 0.0625,0.0625c0.02344,0.01563 0.06641,0.00781 0.09375,0c0.00781,-0.00391 0.02344,0.00391 0.03125,0c-0.01172,0.11328 0.03906,0.22266 0.125,0.28125c0.03906,0.02734 0.07813,0.0625 0.125,0.0625c0.13672,0 0.23047,-0.125 0.25,-0.28125c0.00781,-0.05469 0.01563,-0.10937 0,-0.15625l0.0625,0.0625c0,0.01953 -0.02734,0.01172 -0.03125,0.03125v0.09375c0.00781,0.05469 0.04688,0.10156 0.09375,0.125h-0.0625c-0.01562,-0.00391 -0.01953,0 -0.03125,0c-0.04687,0.01172 -0.06641,0.01172 -0.15625,0.125c-0.02344,0.03125 -0.03906,0.08594 -0.03125,0.125c0.00781,0.03516 0.03906,0.04688 0.0625,0.0625c0.05078,0.04297 0.09766,0.09375 0.15625,0.125l0.0625,0.03125c0.01172,0.00781 0.05078,-0.00391 0.0625,0v0.03125c0.01172,0.00391 0.01953,0 0.03125,0c0.00781,-0.00391 0.02344,-0.02734 0.03125,-0.03125l0.1875,-0.0625c0.03516,-0.02344 0.05859,-0.07031 0.0625,-0.125v-0.0625c0.04688,0.03125 0.15234,0.04688 0.4375,0.09375c0.00781,0 0.02344,0 0.03125,0c0.00391,0 0.02734,0 0.03125,0c0.00781,0 0.02344,0 0.03125,0h0.46875c0.02344,0.03516 0.07422,0.05859 0.125,0.0625h0.3125c0.03516,-0.00391 0.07031,-0.01172 0.09375,-0.03125c0.01953,0.01563 0.03906,0.03906 0.0625,0.0625c0.02734,0.01953 0.0625,0.03125 0.09375,0.03125c0.00781,0 0.02344,0.00391 0.03125,0l0.0625,-0.03125v0.03125c0.00781,0.05078 0.04297,0.10547 0.09375,0.125c-0.01172,0.01953 -0.02734,0.03516 -0.03125,0.0625c0,0.0625 0.03125,0.125 0.03125,0.1875v0.0625c0.01172,0.07422 0.0625,0.11328 0.09375,0.125v0.0625c-0.01172,0.01953 -0.03125,0.03516 -0.03125,0.0625c0,0.05469 -0.00391,0.12891 0,0.1875c0.00391,0.03906 0.03125,0.07031 0.0625,0.09375c0,0.03125 -0.00391,0.0625 0,0.09375c-0.01562,0.02344 -0.02734,0.05859 -0.03125,0.09375c0.00391,0.04297 -0.00391,0.08203 0,0.125v0.03125c0.00781,0.05469 0.05469,0.11328 0.125,0.125v0.0625l-0.1875,-0.15625c-0.00781,-0.00781 -0.02344,-0.02734 -0.03125,-0.03125l-0.34375,-0.0625c-0.01562,-0.00391 -0.04687,-0.00391 -0.0625,0h-0.03125l-0.0625,0.03125l-0.40625,-0.09375l-0.21875,-0.28125c-0.00781,-0.01172 -0.01953,-0.02734 -0.03125,-0.03125h-0.03125c-0.03516,-0.01953 -0.09375,-0.03125 -0.125,0l-0.0625,0.09375l-0.0625,-0.03125c-0.02734,-0.01562 -0.03906,-0.04687 -0.0625,-0.0625c-0.03125,-0.01562 -0.0625,-0.01562 -0.09375,0l-0.46875,0.25c-0.00781,0.00391 -0.02344,0.02344 -0.03125,0.03125c-0.00781,0.00781 -0.02734,0.01953 -0.03125,0.03125l-0.125,0.34375l-0.15625,-0.09375c-0.01172,-0.00781 -0.01562,-0.02734 -0.03125,-0.03125h-0.03125c-0.00781,0 -0.02734,0 -0.03125,0l-0.28125,0.0625l-0.09375,-0.1875l0.03125,-0.84375c0.00391,-0.01953 0,-0.04297 0,-0.0625c0,-0.01953 0.00781,-0.01562 0,-0.03125c-0.04687,-0.08203 -0.125,-0.17578 -0.1875,-0.25l-0.03125,-0.03125c-0.00781,-0.00781 -0.02344,-0.02344 -0.03125,-0.03125c-0.01172,-0.00781 -0.01953,-0.02734 -0.03125,-0.03125l-0.25,-0.03125v-0.21875zM4.34375,12.53125c0,0.00781 0,0.02734 0,0.03125c-0.02344,0.03125 -0.03125,0.05859 -0.03125,0.09375c-0.01562,-0.01953 -0.04297,-0.02734 -0.0625,-0.03125c-0.07031,-0.01953 -0.13672,-0.04687 -0.21875,-0.0625zM23.53125,12.78125c0.05469,0.12109 0.10938,0.23438 0.15625,0.34375v0.25c-0.01172,-0.01953 -0.03906,-0.02344 -0.0625,-0.03125l-0.0625,-0.40625v-0.03125zM1.78125,13.21875l0.0625,0.0625c0.03125,0.03125 0.08594,0.05078 0.125,0.03125l0.125,-0.09375l0.09375,0.25c0,0.00391 0,0.02734 0,0.03125c0.00391,0.01172 0.02344,0.02344 0.03125,0.03125l0.0625,0.09375c0.00391,0.00781 -0.00781,0.02734 0,0.03125l0.125,0.125c0.00781,0.00391 0.05469,0.02734 0.0625,0.03125l0.15625,0.09375l0.25,0.75c0.00391,0.00391 -0.00391,0.02734 0,0.03125l0.0625,0.0625c0.02734,0.03125 0.08594,0.05078 0.125,0.03125l0.03125,-0.03125l0.09375,0.125c0.00781,0.02344 0.00781,0.05078 0.03125,0.0625c0.01953,0.01172 0.04688,0.02344 0.0625,0.03125c0.01172,0.00391 0.02344,-0.00391 0.03125,0l0.125,0.1875c0.02344,0.03516 0.08203,0.05078 0.125,0.03125l0.125,-0.0625c0.01953,-0.00781 0.05078,-0.04297 0.0625,-0.0625l0.03125,0.09375c0.03906,0.27344 0.10156,0.53906 0.15625,0.8125l-0.03125,0.1875l-0.0625,0.1875l-0.0625,0.40625c-0.00391,0.01172 -0.00391,0.01953 0,0.03125c0,0.00391 0,0.02734 0,0.03125c0.02344,0.09375 0.03516,0.19141 0.0625,0.28125l0.03125,0.03125c0.00391,0.01563 -0.01172,0.01953 0,0.03125c0.00781,0.00781 0.03906,0.01172 0.0625,0.03125l-0.03125,0.03125c-0.01172,0.01953 -0.00391,0.03906 0,0.0625c0,0.00781 0.02734,0.02344 0.03125,0.03125l0.1875,0.4375c0.00391,0.00781 -0.00781,0.02344 0,0.03125l0.40625,0.34375l0.1875,0.28125c0.00391,0.00781 0.02734,0.02734 0.03125,0.03125c0.00781,0.01172 0,0.03125 0,0.03125c0.29688,0.39063 0.73438,0.91406 0.8125,0.96875l0.5625,0.28125c0.05078,0.03125 0.10547,0.05469 0.28125,0.15625l0.0625,0.0625c0.21484,0.32813 0.52344,0.80078 0.78125,1.15625c0.57031,0.72266 0.71094,0.92969 1.4375,1.65625c0.00391,0.00391 0.02734,-0.00391 0.03125,0l0.1875,0.15625c0.02734,0.02734 0.06641,0.03516 0.09375,0.0625l0.03125,0.0625c0.00781,0.00781 0.02344,-0.00391 0.03125,0c0.03906,0.02344 0.08203,0.05078 0.125,0.0625c0.00781,0.03516 0.02734,0.04297 0.1875,0.15625c0.02734,0.01953 0.0625,0.03125 0.09375,0.03125l0.0625,0.09375c0.01172,0.01563 0.01172,0.02344 0.03125,0.03125l0.125,0.0625l0.03125,0.03125c0.00781,0.01172 0.01953,0.02344 0.03125,0.03125c0.05469,0.03516 0.125,0.04297 0.1875,0.0625l0.03125,0.03125c0.00781,0.03125 0.03906,0.04688 0.0625,0.0625c0.01172,0.01172 0.02344,0.02734 0.03125,0.03125c0.01953,0.01172 0.03516,0.02344 0.0625,0.03125l0.09375,0.0625c0.01563,0.00781 0.04688,0.03125 0.0625,0.03125h0.0625c0.00391,0.00391 0.02734,0.02734 0.03125,0.03125h0.0625c0.01172,0.02344 0.03906,0.05078 0.0625,0.0625c-4.92578,-1.12109 -8.61719,-5.47266 -8.71875,-10.71875zM24.15625,13.90625c-0.00391,0.03906 0.00391,0.08594 0,0.125l-0.03125,0.03125c-0.05078,0.03516 -0.10547,0.05859 -0.15625,0.09375l-0.03125,-0.03125v-0.0625c0.01172,-0.00391 0.02344,-0.02734 0.03125,-0.03125c0.00781,-0.00391 0.02734,0.00391 0.03125,0zM18.78125,16.125c-0.14453,0.01953 -0.25391,0.12109 -0.28125,0.25c-0.02344,0.10547 0.00781,0.19141 0.09375,0.25c0.04688,0.03125 0.09766,0.0625 0.15625,0.0625c0.14453,0 0.27734,-0.11719 0.3125,-0.25c0.02344,-0.07422 0.01563,-0.15625 -0.03125,-0.21875c-0.04687,-0.06641 -0.12109,-0.09375 -0.21875,-0.09375c-0.00391,0 -0.02734,0 -0.03125,0zM23.75,16.1875c-0.24219,0.82422 -0.55469,1.60938 -0.96875,2.34375c-0.01562,0.01172 -0.00391,0.01563 -0.09375,0.125c0.01563,-0.0625 -0.03516,-0.10937 -0.0625,-0.125c-0.00781,-0.00391 -0.02344,-0.02734 -0.03125,-0.03125c-0.03125,-0.00781 -0.0625,0 -0.09375,0h-0.03125l0.03125,-0.0625c0.01563,-0.03125 0.01563,-0.05859 0.03125,-0.09375l0.03125,-0.0625c0.00781,-0.01172 0.03125,-0.01562 0.03125,-0.03125v-0.0625l0.125,-0.40625l0.03125,-0.125l0.125,-0.21875l0.0625,-0.0625c0.00781,-0.00781 0.02734,-0.01953 0.03125,-0.03125c0.04297,-0.10156 0.04688,-0.16406 0.0625,-0.21875l0.125,-0.21875l0.09375,-0.09375c0.01563,-0.00781 0.01953,-0.01562 0.03125,-0.03125l0.375,-0.5625zM22.3125,18.90625c0.02344,0.01563 0.03906,-0.00391 0.0625,0c0.00781,0.00391 0.02344,0 0.03125,0c0.01563,-0.00391 0.05078,0.01172 0.0625,0c-0.04687,0.05859 -0.125,0.10938 -0.1875,0.1875l-0.15625,0.09375z"></path></g></g></svg>