<svg xmlns="http://www.w3.org/2000/svg" xmlns:xlink="http://www.w3.org/1999/xlink" viewBox="0,0,256,256" width="1600px" height="1600px"><g fill="#5787a4" fill-rule="nonzero" stroke="none" stroke-width="1" stroke-linecap="butt" stroke-linejoin="miter" stroke-miterlimit="10" stroke-dasharray="" stroke-dashoffset="0" font-family="none" font-weight="none" font-size="none" text-anchor="none" style="mix-blend-mode: normal"><g transform="scale(5.12,5.12)"><path d="M24.98438,14c-0.26172,0.00391 -0.50781,0.10938 -0.69141,0.29297l-20,20c-0.26172,0.25 -0.36719,0.625 -0.27344,0.97266c0.08984,0.35156 0.36328,0.625 0.71484,0.71484c0.34766,0.09375 0.72266,-0.01172 0.97266,-0.27344l19.29297,-19.29297l19.29297,19.29297c0.25,0.26172 0.625,0.36719 0.97266,0.27344c0.35156,-0.08984 0.625,-0.36328 0.71484,-0.71484c0.09375,-0.34766 -0.01172,-0.72266 -0.27344,-0.97266l-20,-20c-0.19141,-0.19141 -0.45312,-0.29687 -0.72266,-0.29297z"></path></g></g></svg>